<svg width="1440" height="1024" viewBox="0 0 1440 1024" fill="none" xmlns="http://www.w3.org/2000/svg">
<g clip-path="url(#clip0)">
<g filter="url(#filter0_d)">
<rect width="1440" height="1024" fill="#1D1E20"/>
<mask id="path-1-outside-1" maskUnits="userSpaceOnUse" x="539.707" y="482.875" width="359" height="33" fill="black">
<rect fill="white" x="539.707" y="482.875" width="359" height="33"/>
<path d="M548.508 509.637C548.336 511.355 547.391 512.286 545.672 512.43C544.87 512.43 544.168 512.172 543.566 511.656C542.993 511.112 542.707 510.439 542.707 509.637V489.355C542.736 488.553 543.036 487.895 543.609 487.379C544.182 486.835 544.87 486.562 545.672 486.562H563.719C566.24 486.648 568.145 487.207 569.434 488.238C570.723 489.241 571.654 490.387 572.227 491.676C572.799 492.965 573.086 494.268 573.086 495.586C573.086 496.961 572.799 498.293 572.227 499.582C571.682 500.871 570.751 502.031 569.434 503.062C568.145 504.065 566.497 504.552 564.492 504.523H553.664C552.862 504.523 552.189 504.237 551.645 503.664C551.072 503.12 550.785 502.447 550.785 501.645C550.785 500.842 551.057 500.169 551.602 499.625C552.174 499.052 552.862 498.766 553.664 498.766H564.75C565.294 498.766 565.738 498.594 566.082 498.25C566.454 497.878 566.727 497.462 566.898 497.004C567.07 496.517 567.156 496.03 567.156 495.543C567.156 495.085 567.07 494.626 566.898 494.168C566.727 493.681 566.454 493.266 566.082 492.922C565.738 492.549 565.294 492.349 564.75 492.32H549.625C548.88 492.349 548.508 492.721 548.508 493.438V509.637Z"/>
<path d="M606.875 486.562C608.336 486.591 609.639 487.049 610.785 487.938C611.931 488.826 612.848 489.885 613.535 491.117C614.251 492.349 614.781 493.652 615.125 495.027C615.469 496.402 615.64 497.806 615.64 499.238C615.64 501.129 615.34 502.991 614.738 504.824C614.165 506.629 613.206 508.233 611.859 509.637C610.542 511.04 608.88 511.799 606.875 511.914H591.879C589.874 511.828 588.198 511.083 586.851 509.68C585.505 508.276 584.545 506.658 583.972 504.824C583.428 502.991 583.156 501.129 583.156 499.238C583.156 497.348 583.443 495.5 584.015 493.695C584.588 491.862 585.534 490.243 586.851 488.84C588.198 487.408 589.874 486.648 591.879 486.562H592.695H606.058H606.875ZM605.414 506.156C606.502 506.099 607.405 505.698 608.121 504.953C608.866 504.18 609.396 503.292 609.711 502.289C610.026 501.286 610.183 500.27 610.183 499.238C610.183 498.207 610.012 497.204 609.668 496.23C609.353 495.228 608.837 494.34 608.121 493.566C607.405 492.793 606.502 492.378 605.414 492.32H593.211C592.122 492.378 591.22 492.793 590.504 493.566C589.788 494.34 589.258 495.228 588.914 496.23C588.599 497.204 588.441 498.207 588.441 499.238C588.441 500.27 588.599 501.286 588.914 502.289C589.229 503.292 589.745 504.18 590.461 504.953C591.206 505.698 592.122 506.099 593.211 506.156H605.414Z"/>
<path d="M632.285 509.723C632.113 511.441 631.168 512.372 629.449 512.516C628.647 512.516 627.945 512.258 627.343 511.742C626.771 511.198 626.484 510.525 626.484 509.723V489.355C626.513 488.553 626.813 487.895 627.386 487.379C627.959 486.835 628.647 486.562 629.449 486.562H631.554H636.84H647.453C647.625 486.562 647.797 486.577 647.968 486.605H648.226C650.231 486.663 651.879 487.121 653.168 487.98C654.457 488.84 655.388 489.828 655.961 490.945C656.534 492.034 656.82 493.137 656.82 494.254C656.82 495.4 656.534 496.531 655.961 497.648C655.416 498.737 654.485 499.711 653.168 500.57C651.879 501.43 650.231 501.888 648.226 501.945H640.664C640.893 503.378 641.366 504.438 642.082 505.125C642.769 505.812 643.643 506.156 644.703 506.156H653.984C654.786 506.185 655.445 506.486 655.961 507.059C656.505 507.632 656.777 508.319 656.777 509.121C656.748 509.895 656.462 510.553 655.918 511.098C655.402 511.613 654.757 511.885 653.984 511.914H643.929C641.81 511.943 639.89 511.112 638.172 509.422C636.453 507.732 635.407 505.727 635.035 503.406C634.519 500.828 634.261 499.382 634.261 499.066C634.261 498.264 634.534 497.591 635.078 497.047C635.651 496.474 636.338 496.188 637.14 496.188H648.484C649.028 496.159 649.472 496.044 649.816 495.844C650.188 495.615 650.461 495.371 650.632 495.113C650.804 494.827 650.89 494.54 650.89 494.254C650.89 493.967 650.804 493.695 650.632 493.438C650.461 493.151 650.188 492.908 649.816 492.707C649.472 492.478 649.028 492.349 648.484 492.32H636.84H633.402C632.657 492.349 632.285 492.721 632.285 493.438V509.723Z"/>
<path d="M666.804 489.441C666.804 488.639 667.076 487.966 667.621 487.422C668.194 486.849 668.881 486.562 669.683 486.562H694.691C695.493 486.562 696.181 486.835 696.753 487.379C697.298 487.952 697.57 488.639 697.57 489.441C697.57 490.243 697.283 490.931 696.71 491.504C696.166 492.048 695.493 492.32 694.691 492.32H685.109V509.723C684.937 511.441 683.992 512.372 682.273 512.516C681.471 512.516 680.769 512.258 680.167 511.742C679.595 511.198 679.308 510.525 679.308 509.723V492.32H669.683C668.881 492.32 668.208 492.034 667.664 491.461C667.091 490.917 666.804 490.243 666.804 489.441Z"/>
<path d="M711.206 512.43C710.433 512.401 709.774 512.129 709.23 511.613C708.686 511.069 708.399 510.41 708.37 509.637V498.938C708.399 496.904 708.686 494.984 709.23 493.18C709.803 491.375 710.734 489.857 712.023 488.625C713.341 487.365 715.002 486.677 717.007 486.562H733.593C734.367 486.591 735.011 486.878 735.527 487.422C736.071 487.938 736.357 488.582 736.386 489.355C736.386 490.158 736.114 490.845 735.57 491.418C735.054 491.991 734.395 492.292 733.593 492.32H718.468C717.38 492.378 716.477 492.793 715.761 493.566C715.045 494.34 714.587 495.228 714.386 496.23C714.214 497.204 714.143 498.279 714.171 499.453V509.637C714.143 510.439 713.842 511.112 713.269 511.656C712.696 512.172 712.008 512.43 711.206 512.43ZM716.191 501.129C716.191 500.327 716.477 499.654 717.05 499.109C717.594 498.536 718.268 498.25 719.07 498.25H733.593C734.395 498.25 735.068 498.536 735.613 499.109C736.186 499.654 736.472 500.327 736.472 501.129C736.472 501.931 736.2 502.618 735.656 503.191C735.083 503.736 734.395 504.008 733.593 504.008H719.07C718.268 504.008 717.58 503.736 717.007 503.191C716.463 502.618 716.191 501.931 716.191 501.129Z"/>
<path d="M769.616 486.562C771.077 486.591 772.381 487.049 773.527 487.938C774.672 488.826 775.589 489.885 776.277 491.117C776.993 492.349 777.523 493.652 777.866 495.027C778.21 496.402 778.382 497.806 778.382 499.238C778.382 501.129 778.081 502.991 777.48 504.824C776.907 506.629 775.947 508.233 774.601 509.637C773.283 511.04 771.622 511.799 769.616 511.914H754.62C752.615 511.828 750.939 511.083 749.593 509.68C748.247 508.276 747.287 506.658 746.714 504.824C746.17 502.991 745.898 501.129 745.898 499.238C745.898 497.348 746.184 495.5 746.757 493.695C747.33 491.862 748.275 490.243 749.593 488.84C750.939 487.408 752.615 486.648 754.62 486.562H755.437H768.8H769.616ZM768.155 506.156C769.244 506.099 770.146 505.698 770.863 504.953C771.607 504.18 772.137 503.292 772.452 502.289C772.767 501.286 772.925 500.27 772.925 499.238C772.925 498.207 772.753 497.204 772.409 496.23C772.094 495.228 771.579 494.34 770.863 493.566C770.146 492.793 769.244 492.378 768.155 492.32H755.952C754.864 492.378 753.961 492.793 753.245 493.566C752.529 494.34 751.999 495.228 751.655 496.23C751.34 497.204 751.183 498.207 751.183 499.238C751.183 500.27 751.34 501.286 751.655 502.289C751.971 503.292 752.486 504.18 753.202 504.953C753.947 505.698 754.864 506.099 755.952 506.156H768.155Z"/>
<path d="M792.105 485.875C792.907 485.875 793.594 486.147 794.167 486.691C794.74 487.207 795.041 487.866 795.069 488.668V499.023C795.041 500.198 795.112 501.286 795.284 502.289C795.485 503.263 795.943 504.137 796.659 504.91C797.375 505.684 798.278 506.099 799.366 506.156H813.116C813.918 506.185 814.577 506.486 815.093 507.059C815.637 507.632 815.909 508.319 815.909 509.121C815.881 509.895 815.594 510.553 815.05 511.098C814.534 511.613 813.89 511.885 813.116 511.914H797.905C795.9 511.799 794.239 511.126 792.921 509.895C791.632 508.634 790.701 507.102 790.128 505.297C789.584 503.492 789.297 501.573 789.269 499.539V488.668C789.297 487.895 789.584 487.25 790.128 486.734C790.672 486.19 791.331 485.904 792.105 485.875Z"/>
<path d="M825.249 509.035C825.249 508.233 825.521 507.56 826.065 507.016C826.638 506.443 827.326 506.156 828.128 506.156H836.378V492.32H828.128C827.326 492.32 826.653 492.034 826.108 491.461C825.535 490.917 825.249 490.243 825.249 489.441C825.249 488.639 825.521 487.966 826.065 487.422C826.638 486.849 827.326 486.562 828.128 486.562H850.386C851.188 486.562 851.875 486.835 852.448 487.379C852.992 487.952 853.265 488.639 853.265 489.441C853.265 490.243 852.978 490.931 852.405 491.504C851.861 492.048 851.188 492.32 850.386 492.32H842.179V506.156H850.386C851.188 506.156 851.875 506.428 852.448 506.973C852.992 507.546 853.265 508.233 853.265 509.035C853.265 509.837 852.978 510.525 852.405 511.098C851.861 511.642 851.188 511.914 850.386 511.914H828.128C827.326 511.914 826.653 511.628 826.108 511.055C825.535 510.51 825.249 509.837 825.249 509.035Z"/>
<path d="M886.925 486.562C888.385 486.591 889.689 487.049 890.835 487.938C891.981 488.826 892.897 489.885 893.585 491.117C894.301 492.349 894.831 493.652 895.175 495.027C895.518 496.402 895.69 497.806 895.69 499.238C895.69 501.129 895.389 502.991 894.788 504.824C894.215 506.629 893.255 508.233 891.909 509.637C890.591 511.04 888.93 511.799 886.925 511.914H871.928C869.923 511.828 868.247 511.083 866.901 509.68C865.555 508.276 864.595 506.658 864.022 504.824C863.478 502.991 863.206 501.129 863.206 499.238C863.206 497.348 863.492 495.5 864.065 493.695C864.638 491.862 865.583 490.243 866.901 488.84C868.247 487.408 869.923 486.648 871.928 486.562H872.745H886.108H886.925ZM885.464 506.156C886.552 506.099 887.454 505.698 888.171 504.953C888.915 504.18 889.445 503.292 889.76 502.289C890.076 501.286 890.233 500.27 890.233 499.238C890.233 498.207 890.061 497.204 889.717 496.23C889.402 495.228 888.887 494.34 888.171 493.566C887.454 492.793 886.552 492.378 885.464 492.32H873.26C872.172 492.378 871.27 492.793 870.553 493.566C869.837 494.34 869.307 495.228 868.964 496.23C868.648 497.204 868.491 498.207 868.491 499.238C868.491 500.27 868.648 501.286 868.964 502.289C869.279 503.292 869.794 504.18 870.51 504.953C871.255 505.698 872.172 506.099 873.26 506.156H885.464Z"/>
</mask>
<path d="M548.508 509.637C548.336 511.355 547.391 512.286 545.672 512.43C544.87 512.43 544.168 512.172 543.566 511.656C542.993 511.112 542.707 510.439 542.707 509.637V489.355C542.736 488.553 543.036 487.895 543.609 487.379C544.182 486.835 544.87 486.562 545.672 486.562H563.719C566.24 486.648 568.145 487.207 569.434 488.238C570.723 489.241 571.654 490.387 572.227 491.676C572.799 492.965 573.086 494.268 573.086 495.586C573.086 496.961 572.799 498.293 572.227 499.582C571.682 500.871 570.751 502.031 569.434 503.062C568.145 504.065 566.497 504.552 564.492 504.523H553.664C552.862 504.523 552.189 504.237 551.645 503.664C551.072 503.12 550.785 502.447 550.785 501.645C550.785 500.842 551.057 500.169 551.602 499.625C552.174 499.052 552.862 498.766 553.664 498.766H564.75C565.294 498.766 565.738 498.594 566.082 498.25C566.454 497.878 566.727 497.462 566.898 497.004C567.07 496.517 567.156 496.03 567.156 495.543C567.156 495.085 567.07 494.626 566.898 494.168C566.727 493.681 566.454 493.266 566.082 492.922C565.738 492.549 565.294 492.349 564.75 492.32H549.625C548.88 492.349 548.508 492.721 548.508 493.438V509.637Z" stroke="white" stroke-width="6" mask="url(#path-1-outside-1)"/>
<path d="M606.875 486.562C608.336 486.591 609.639 487.049 610.785 487.938C611.931 488.826 612.848 489.885 613.535 491.117C614.251 492.349 614.781 493.652 615.125 495.027C615.469 496.402 615.64 497.806 615.64 499.238C615.64 501.129 615.34 502.991 614.738 504.824C614.165 506.629 613.206 508.233 611.859 509.637C610.542 511.04 608.88 511.799 606.875 511.914H591.879C589.874 511.828 588.198 511.083 586.851 509.68C585.505 508.276 584.545 506.658 583.972 504.824C583.428 502.991 583.156 501.129 583.156 499.238C583.156 497.348 583.443 495.5 584.015 493.695C584.588 491.862 585.534 490.243 586.851 488.84C588.198 487.408 589.874 486.648 591.879 486.562H592.695H606.058H606.875ZM605.414 506.156C606.502 506.099 607.405 505.698 608.121 504.953C608.866 504.18 609.396 503.292 609.711 502.289C610.026 501.286 610.183 500.27 610.183 499.238C610.183 498.207 610.012 497.204 609.668 496.23C609.353 495.228 608.837 494.34 608.121 493.566C607.405 492.793 606.502 492.378 605.414 492.32H593.211C592.122 492.378 591.22 492.793 590.504 493.566C589.788 494.34 589.258 495.228 588.914 496.23C588.599 497.204 588.441 498.207 588.441 499.238C588.441 500.27 588.599 501.286 588.914 502.289C589.229 503.292 589.745 504.18 590.461 504.953C591.206 505.698 592.122 506.099 593.211 506.156H605.414Z" stroke="white" stroke-width="6" mask="url(#path-1-outside-1)"/>
<path d="M632.285 509.723C632.113 511.441 631.168 512.372 629.449 512.516C628.647 512.516 627.945 512.258 627.343 511.742C626.771 511.198 626.484 510.525 626.484 509.723V489.355C626.513 488.553 626.813 487.895 627.386 487.379C627.959 486.835 628.647 486.562 629.449 486.562H631.554H636.84H647.453C647.625 486.562 647.797 486.577 647.968 486.605H648.226C650.231 486.663 651.879 487.121 653.168 487.98C654.457 488.84 655.388 489.828 655.961 490.945C656.534 492.034 656.82 493.137 656.82 494.254C656.82 495.4 656.534 496.531 655.961 497.648C655.416 498.737 654.485 499.711 653.168 500.57C651.879 501.43 650.231 501.888 648.226 501.945H640.664C640.893 503.378 641.366 504.438 642.082 505.125C642.769 505.812 643.643 506.156 644.703 506.156H653.984C654.786 506.185 655.445 506.486 655.961 507.059C656.505 507.632 656.777 508.319 656.777 509.121C656.748 509.895 656.462 510.553 655.918 511.098C655.402 511.613 654.757 511.885 653.984 511.914H643.929C641.81 511.943 639.89 511.112 638.172 509.422C636.453 507.732 635.407 505.727 635.035 503.406C634.519 500.828 634.261 499.382 634.261 499.066C634.261 498.264 634.534 497.591 635.078 497.047C635.651 496.474 636.338 496.188 637.14 496.188H648.484C649.028 496.159 649.472 496.044 649.816 495.844C650.188 495.615 650.461 495.371 650.632 495.113C650.804 494.827 650.89 494.54 650.89 494.254C650.89 493.967 650.804 493.695 650.632 493.438C650.461 493.151 650.188 492.908 649.816 492.707C649.472 492.478 649.028 492.349 648.484 492.32H636.84H633.402C632.657 492.349 632.285 492.721 632.285 493.438V509.723Z" stroke="white" stroke-width="6" mask="url(#path-1-outside-1)"/>
<path d="M666.804 489.441C666.804 488.639 667.076 487.966 667.621 487.422C668.194 486.849 668.881 486.562 669.683 486.562H694.691C695.493 486.562 696.181 486.835 696.753 487.379C697.298 487.952 697.57 488.639 697.57 489.441C697.57 490.243 697.283 490.931 696.71 491.504C696.166 492.048 695.493 492.32 694.691 492.32H685.109V509.723C684.937 511.441 683.992 512.372 682.273 512.516C681.471 512.516 680.769 512.258 680.167 511.742C679.595 511.198 679.308 510.525 679.308 509.723V492.32H669.683C668.881 492.32 668.208 492.034 667.664 491.461C667.091 490.917 666.804 490.243 666.804 489.441Z" stroke="white" stroke-width="6" mask="url(#path-1-outside-1)"/>
<path d="M711.206 512.43C710.433 512.401 709.774 512.129 709.23 511.613C708.686 511.069 708.399 510.41 708.37 509.637V498.938C708.399 496.904 708.686 494.984 709.23 493.18C709.803 491.375 710.734 489.857 712.023 488.625C713.341 487.365 715.002 486.677 717.007 486.562H733.593C734.367 486.591 735.011 486.878 735.527 487.422C736.071 487.938 736.357 488.582 736.386 489.355C736.386 490.158 736.114 490.845 735.57 491.418C735.054 491.991 734.395 492.292 733.593 492.32H718.468C717.38 492.378 716.477 492.793 715.761 493.566C715.045 494.34 714.587 495.228 714.386 496.23C714.214 497.204 714.143 498.279 714.171 499.453V509.637C714.143 510.439 713.842 511.112 713.269 511.656C712.696 512.172 712.008 512.43 711.206 512.43ZM716.191 501.129C716.191 500.327 716.477 499.654 717.05 499.109C717.594 498.536 718.268 498.25 719.07 498.25H733.593C734.395 498.25 735.068 498.536 735.613 499.109C736.186 499.654 736.472 500.327 736.472 501.129C736.472 501.931 736.2 502.618 735.656 503.191C735.083 503.736 734.395 504.008 733.593 504.008H719.07C718.268 504.008 717.58 503.736 717.007 503.191C716.463 502.618 716.191 501.931 716.191 501.129Z" stroke="white" stroke-width="6" mask="url(#path-1-outside-1)"/>
<path d="M769.616 486.562C771.077 486.591 772.381 487.049 773.527 487.938C774.672 488.826 775.589 489.885 776.277 491.117C776.993 492.349 777.523 493.652 777.866 495.027C778.21 496.402 778.382 497.806 778.382 499.238C778.382 501.129 778.081 502.991 777.48 504.824C776.907 506.629 775.947 508.233 774.601 509.637C773.283 511.04 771.622 511.799 769.616 511.914H754.62C752.615 511.828 750.939 511.083 749.593 509.68C748.247 508.276 747.287 506.658 746.714 504.824C746.17 502.991 745.898 501.129 745.898 499.238C745.898 497.348 746.184 495.5 746.757 493.695C747.33 491.862 748.275 490.243 749.593 488.84C750.939 487.408 752.615 486.648 754.62 486.562H755.437H768.8H769.616ZM768.155 506.156C769.244 506.099 770.146 505.698 770.863 504.953C771.607 504.18 772.137 503.292 772.452 502.289C772.767 501.286 772.925 500.27 772.925 499.238C772.925 498.207 772.753 497.204 772.409 496.23C772.094 495.228 771.579 494.34 770.863 493.566C770.146 492.793 769.244 492.378 768.155 492.32H755.952C754.864 492.378 753.961 492.793 753.245 493.566C752.529 494.34 751.999 495.228 751.655 496.23C751.34 497.204 751.183 498.207 751.183 499.238C751.183 500.27 751.34 501.286 751.655 502.289C751.971 503.292 752.486 504.18 753.202 504.953C753.947 505.698 754.864 506.099 755.952 506.156H768.155Z" stroke="white" stroke-width="6" mask="url(#path-1-outside-1)"/>
<path d="M792.105 485.875C792.907 485.875 793.594 486.147 794.167 486.691C794.74 487.207 795.041 487.866 795.069 488.668V499.023C795.041 500.198 795.112 501.286 795.284 502.289C795.485 503.263 795.943 504.137 796.659 504.91C797.375 505.684 798.278 506.099 799.366 506.156H813.116C813.918 506.185 814.577 506.486 815.093 507.059C815.637 507.632 815.909 508.319 815.909 509.121C815.881 509.895 815.594 510.553 815.05 511.098C814.534 511.613 813.89 511.885 813.116 511.914H797.905C795.9 511.799 794.239 511.126 792.921 509.895C791.632 508.634 790.701 507.102 790.128 505.297C789.584 503.492 789.297 501.573 789.269 499.539V488.668C789.297 487.895 789.584 487.25 790.128 486.734C790.672 486.19 791.331 485.904 792.105 485.875Z" stroke="white" stroke-width="6" mask="url(#path-1-outside-1)"/>
<path d="M825.249 509.035C825.249 508.233 825.521 507.56 826.065 507.016C826.638 506.443 827.326 506.156 828.128 506.156H836.378V492.32H828.128C827.326 492.32 826.653 492.034 826.108 491.461C825.535 490.917 825.249 490.243 825.249 489.441C825.249 488.639 825.521 487.966 826.065 487.422C826.638 486.849 827.326 486.562 828.128 486.562H850.386C851.188 486.562 851.875 486.835 852.448 487.379C852.992 487.952 853.265 488.639 853.265 489.441C853.265 490.243 852.978 490.931 852.405 491.504C851.861 492.048 851.188 492.32 850.386 492.32H842.179V506.156H850.386C851.188 506.156 851.875 506.428 852.448 506.973C852.992 507.546 853.265 508.233 853.265 509.035C853.265 509.837 852.978 510.525 852.405 511.098C851.861 511.642 851.188 511.914 850.386 511.914H828.128C827.326 511.914 826.653 511.628 826.108 511.055C825.535 510.51 825.249 509.837 825.249 509.035Z" stroke="white" stroke-width="6" mask="url(#path-1-outside-1)"/>
<path d="M886.925 486.562C888.385 486.591 889.689 487.049 890.835 487.938C891.981 488.826 892.897 489.885 893.585 491.117C894.301 492.349 894.831 493.652 895.175 495.027C895.518 496.402 895.69 497.806 895.69 499.238C895.69 501.129 895.389 502.991 894.788 504.824C894.215 506.629 893.255 508.233 891.909 509.637C890.591 511.04 888.93 511.799 886.925 511.914H871.928C869.923 511.828 868.247 511.083 866.901 509.68C865.555 508.276 864.595 506.658 864.022 504.824C863.478 502.991 863.206 501.129 863.206 499.238C863.206 497.348 863.492 495.5 864.065 493.695C864.638 491.862 865.583 490.243 866.901 488.84C868.247 487.408 869.923 486.648 871.928 486.562H872.745H886.108H886.925ZM885.464 506.156C886.552 506.099 887.454 505.698 888.171 504.953C888.915 504.18 889.445 503.292 889.76 502.289C890.076 501.286 890.233 500.27 890.233 499.238C890.233 498.207 890.061 497.204 889.717 496.23C889.402 495.228 888.887 494.34 888.171 493.566C887.454 492.793 886.552 492.378 885.464 492.32H873.26C872.172 492.378 871.27 492.793 870.553 493.566C869.837 494.34 869.307 495.228 868.964 496.23C868.648 497.204 868.491 498.207 868.491 499.238C868.491 500.27 868.648 501.286 868.964 502.289C869.279 503.292 869.794 504.18 870.51 504.953C871.255 505.698 872.172 506.099 873.26 506.156H885.464Z" stroke="white" stroke-width="6" mask="url(#path-1-outside-1)"/>
</g>
</g>
<defs>
<filter id="filter0_d" x="-4" y="0" width="1448" height="1032" filterUnits="userSpaceOnUse" color-interpolation-filters="sRGB">
<feFlood flood-opacity="0" result="BackgroundImageFix"/>
<feColorMatrix in="SourceAlpha" type="matrix" values="0 0 0 0 0 0 0 0 0 0 0 0 0 0 0 0 0 0 127 0"/>
<feOffset dy="4"/>
<feGaussianBlur stdDeviation="2"/>
<feColorMatrix type="matrix" values="0 0 0 0 0 0 0 0 0 0 0 0 0 0 0 0 0 0 0.25 0"/>
<feBlend mode="normal" in2="BackgroundImageFix" result="effect1_dropShadow"/>
<feBlend mode="normal" in="SourceGraphic" in2="effect1_dropShadow" result="shape"/>
</filter>
<clipPath id="clip0">
<rect width="1440" height="1024" fill="white"/>
</clipPath>
</defs>
</svg>
