<svg width="360" height="34" viewBox="0 0 360 34" fill="none" xmlns="http://www.w3.org/2000/svg">
<mask id="path-1-outside-1" maskUnits="userSpaceOnUse" x="0.707031" y="0.875" width="359" height="33" fill="black">
<rect fill="white" x="0.707031" y="0.875" width="359" height="33"/>
<path d="M9.50781 27.6367C9.33594 29.3555 8.39062 30.2865 6.67188 30.4297C5.86979 30.4297 5.16797 30.1719 4.56641 29.6562C3.99349 29.112 3.70703 28.4388 3.70703 27.6367V7.35547C3.73568 6.55339 4.03646 5.89453 4.60938 5.37891C5.18229 4.83464 5.86979 4.5625 6.67188 4.5625H24.7188C27.2396 4.64844 29.1445 5.20703 30.4336 6.23828C31.7227 7.24089 32.6536 8.38672 33.2266 9.67578C33.7995 10.9648 34.0859 12.2682 34.0859 13.5859C34.0859 14.9609 33.7995 16.293 33.2266 17.582C32.6823 18.8711 31.7513 20.0312 30.4336 21.0625C29.1445 22.0651 27.4974 22.5521 25.4922 22.5234H14.6641C13.862 22.5234 13.1888 22.237 12.6445 21.6641C12.0716 21.1198 11.7852 20.4466 11.7852 19.6445C11.7852 18.8424 12.0573 18.1693 12.6016 17.625C13.1745 17.0521 13.862 16.7656 14.6641 16.7656H25.75C26.2943 16.7656 26.7383 16.5938 27.082 16.25C27.4544 15.8776 27.7266 15.4622 27.8984 15.0039C28.0703 14.5169 28.1562 14.0299 28.1562 13.543C28.1562 13.0846 28.0703 12.6263 27.8984 12.168C27.7266 11.681 27.4544 11.2656 27.082 10.9219C26.7383 10.5495 26.2943 10.349 25.75 10.3203H10.625C9.88021 10.349 9.50781 10.7214 9.50781 11.4375V27.6367Z"/>
<path d="M67.8748 4.5625C69.3358 4.59115 70.6392 5.04948 71.785 5.9375C72.9308 6.82552 73.8475 7.88542 74.535 9.11719C75.2511 10.349 75.7811 11.6523 76.1248 13.0273C76.4686 14.4023 76.6405 15.806 76.6405 17.2383C76.6405 19.1289 76.3397 20.9909 75.7381 22.8242C75.1652 24.6289 74.2056 26.2331 72.8592 27.6367C71.5415 29.0404 69.8801 29.7995 67.8748 29.9141H52.8787C50.8735 29.8281 49.1978 29.0833 47.8514 27.6797C46.5051 26.276 45.5454 24.6576 44.9725 22.8242C44.4282 20.9909 44.1561 19.1289 44.1561 17.2383C44.1561 15.3477 44.4426 13.5 45.0155 11.6953C45.5884 9.86198 46.5337 8.24349 47.8514 6.83984C49.1978 5.40755 50.8735 4.64844 52.8787 4.5625H53.6952H67.0584H67.8748ZM66.4139 24.1562C67.5025 24.099 68.4048 23.6979 69.1209 22.9531C69.8657 22.1797 70.3957 21.2917 70.7108 20.2891C71.0259 19.2865 71.1834 18.2695 71.1834 17.2383C71.1834 16.207 71.0116 15.2044 70.6678 14.2305C70.3527 13.2279 69.8371 12.3398 69.1209 11.5664C68.4048 10.793 67.5025 10.3776 66.4139 10.3203H54.2108C53.1222 10.3776 52.2199 10.793 51.5037 11.5664C50.7876 12.3398 50.2577 13.2279 49.9139 14.2305C49.5988 15.2044 49.4412 16.207 49.4412 17.2383C49.4412 18.2695 49.5988 19.2865 49.9139 20.2891C50.229 21.2917 50.7446 22.1797 51.4608 22.9531C52.2056 23.6979 53.1222 24.099 54.2108 24.1562H66.4139Z"/>
<path d="M93.2848 27.7227C93.113 29.4414 92.1677 30.3724 90.4489 30.5156C89.6468 30.5156 88.945 30.2578 88.3434 29.7422C87.7705 29.1979 87.4841 28.5247 87.4841 27.7227V7.35547C87.5127 6.55339 87.8135 5.89453 88.3864 5.37891C88.9593 4.83464 89.6468 4.5625 90.4489 4.5625H92.5544H97.8395H108.453C108.625 4.5625 108.797 4.57682 108.968 4.60547H109.226C111.231 4.66276 112.879 5.12109 114.168 5.98047C115.457 6.83984 116.388 7.82812 116.961 8.94531C117.534 10.0339 117.82 11.1367 117.82 12.2539C117.82 13.3997 117.534 14.5312 116.961 15.6484C116.416 16.737 115.485 17.7109 114.168 18.5703C112.879 19.4297 111.231 19.888 109.226 19.9453H101.664C101.893 21.3776 102.366 22.4375 103.082 23.125C103.769 23.8125 104.643 24.1562 105.703 24.1562H114.984C115.786 24.1849 116.445 24.4857 116.961 25.0586C117.505 25.6315 117.777 26.319 117.777 27.1211C117.748 27.8945 117.462 28.5534 116.918 29.0977C116.402 29.6133 115.757 29.8854 114.984 29.9141H104.929C102.81 29.9427 100.89 29.112 99.1716 27.4219C97.4528 25.7318 96.4072 23.7266 96.0348 21.4062C95.5192 18.8281 95.2614 17.3815 95.2614 17.0664C95.2614 16.2643 95.5335 15.5911 96.0778 15.0469C96.6507 14.474 97.3382 14.1875 98.1403 14.1875H109.484C110.028 14.1589 110.472 14.0443 110.816 13.8438C111.188 13.6146 111.461 13.3711 111.632 13.1133C111.804 12.8268 111.89 12.5404 111.89 12.2539C111.89 11.9674 111.804 11.6953 111.632 11.4375C111.461 11.151 111.188 10.9076 110.816 10.707C110.472 10.4779 110.028 10.349 109.484 10.3203H97.8395H94.402C93.6572 10.349 93.2848 10.7214 93.2848 11.4375V27.7227Z"/>
<path d="M127.804 7.44141C127.804 6.63932 128.076 5.96615 128.621 5.42188C129.194 4.84896 129.881 4.5625 130.683 4.5625H155.691C156.493 4.5625 157.181 4.83464 157.753 5.37891C158.298 5.95182 158.57 6.63932 158.57 7.44141C158.57 8.24349 158.283 8.93099 157.71 9.50391C157.166 10.0482 156.493 10.3203 155.691 10.3203H146.109V27.7227C145.937 29.4414 144.992 30.3724 143.273 30.5156C142.471 30.5156 141.769 30.2578 141.167 29.7422C140.595 29.1979 140.308 28.5247 140.308 27.7227V10.3203H130.683C129.881 10.3203 129.208 10.0339 128.664 9.46094C128.091 8.91667 127.804 8.24349 127.804 7.44141Z"/>
<path d="M172.206 30.4297C171.433 30.401 170.774 30.1289 170.23 29.6133C169.686 29.069 169.399 28.4102 169.37 27.6367V16.9375C169.399 14.9036 169.686 12.9844 170.23 11.1797C170.803 9.375 171.734 7.85677 173.023 6.625C174.341 5.36458 176.002 4.67708 178.007 4.5625H194.593C195.367 4.59115 196.011 4.8776 196.527 5.42188C197.071 5.9375 197.357 6.58203 197.386 7.35547C197.386 8.15755 197.114 8.84505 196.57 9.41797C196.054 9.99089 195.395 10.2917 194.593 10.3203H179.468C178.38 10.3776 177.477 10.793 176.761 11.5664C176.045 12.3398 175.587 13.2279 175.386 14.2305C175.214 15.2044 175.143 16.2786 175.171 17.4531V27.6367C175.143 28.4388 174.842 29.112 174.269 29.6562C173.696 30.1719 173.008 30.4297 172.206 30.4297ZM177.191 19.1289C177.191 18.3268 177.477 17.6536 178.05 17.1094C178.594 16.5365 179.268 16.25 180.07 16.25H194.593C195.395 16.25 196.068 16.5365 196.613 17.1094C197.186 17.6536 197.472 18.3268 197.472 19.1289C197.472 19.931 197.2 20.6185 196.656 21.1914C196.083 21.7357 195.395 22.0078 194.593 22.0078H180.07C179.268 22.0078 178.58 21.7357 178.007 21.1914C177.463 20.6185 177.191 19.931 177.191 19.1289Z"/>
<path d="M230.616 4.5625C232.077 4.59115 233.381 5.04948 234.527 5.9375C235.672 6.82552 236.589 7.88542 237.277 9.11719C237.993 10.349 238.523 11.6523 238.866 13.0273C239.21 14.4023 239.382 15.806 239.382 17.2383C239.382 19.1289 239.081 20.9909 238.48 22.8242C237.907 24.6289 236.947 26.2331 235.601 27.6367C234.283 29.0404 232.622 29.7995 230.616 29.9141H215.62C213.615 29.8281 211.939 29.0833 210.593 27.6797C209.247 26.276 208.287 24.6576 207.714 22.8242C207.17 20.9909 206.898 19.1289 206.898 17.2383C206.898 15.3477 207.184 13.5 207.757 11.6953C208.33 9.86198 209.275 8.24349 210.593 6.83984C211.939 5.40755 213.615 4.64844 215.62 4.5625H216.437H229.8H230.616ZM229.155 24.1562C230.244 24.099 231.146 23.6979 231.863 22.9531C232.607 22.1797 233.137 21.2917 233.452 20.2891C233.767 19.2865 233.925 18.2695 233.925 17.2383C233.925 16.207 233.753 15.2044 233.409 14.2305C233.094 13.2279 232.579 12.3398 231.863 11.5664C231.146 10.793 230.244 10.3776 229.155 10.3203H216.952C215.864 10.3776 214.961 10.793 214.245 11.5664C213.529 12.3398 212.999 13.2279 212.655 14.2305C212.34 15.2044 212.183 16.207 212.183 17.2383C212.183 18.2695 212.34 19.2865 212.655 20.2891C212.971 21.2917 213.486 22.1797 214.202 22.9531C214.947 23.6979 215.864 24.099 216.952 24.1562H229.155Z"/>
<path d="M253.105 3.875C253.907 3.875 254.594 4.14714 255.167 4.69141C255.74 5.20703 256.041 5.86589 256.069 6.66797V17.0234C256.041 18.1979 256.112 19.2865 256.284 20.2891C256.485 21.263 256.943 22.1367 257.659 22.9102C258.375 23.6836 259.278 24.099 260.366 24.1562H274.116C274.918 24.1849 275.577 24.4857 276.093 25.0586C276.637 25.6315 276.909 26.319 276.909 27.1211C276.881 27.8945 276.594 28.5534 276.05 29.0977C275.534 29.6133 274.89 29.8854 274.116 29.9141H258.905C256.9 29.7995 255.239 29.1263 253.921 27.8945C252.632 26.6341 251.701 25.1016 251.128 23.2969C250.584 21.4922 250.297 19.5729 250.269 17.5391V6.66797C250.297 5.89453 250.584 5.25 251.128 4.73438C251.672 4.1901 252.331 3.90365 253.105 3.875Z"/>
<path d="M286.249 27.0352C286.249 26.2331 286.521 25.5599 287.065 25.0156C287.638 24.4427 288.326 24.1562 289.128 24.1562H297.378V10.3203H289.128C288.326 10.3203 287.653 10.0339 287.108 9.46094C286.535 8.91667 286.249 8.24349 286.249 7.44141C286.249 6.63932 286.521 5.96615 287.065 5.42188C287.638 4.84896 288.326 4.5625 289.128 4.5625H311.386C312.188 4.5625 312.875 4.83464 313.448 5.37891C313.992 5.95182 314.265 6.63932 314.265 7.44141C314.265 8.24349 313.978 8.93099 313.405 9.50391C312.861 10.0482 312.188 10.3203 311.386 10.3203H303.179V24.1562H311.386C312.188 24.1562 312.875 24.4284 313.448 24.9727C313.992 25.5456 314.265 26.2331 314.265 27.0352C314.265 27.8372 313.978 28.5247 313.405 29.0977C312.861 29.6419 312.188 29.9141 311.386 29.9141H289.128C288.326 29.9141 287.653 29.6276 287.108 29.0547C286.535 28.5104 286.249 27.8372 286.249 27.0352Z"/>
<path d="M347.925 4.5625C349.385 4.59115 350.689 5.04948 351.835 5.9375C352.981 6.82552 353.897 7.88542 354.585 9.11719C355.301 10.349 355.831 11.6523 356.175 13.0273C356.518 14.4023 356.69 15.806 356.69 17.2383C356.69 19.1289 356.389 20.9909 355.788 22.8242C355.215 24.6289 354.255 26.2331 352.909 27.6367C351.591 29.0404 349.93 29.7995 347.925 29.9141H332.928C330.923 29.8281 329.247 29.0833 327.901 27.6797C326.555 26.276 325.595 24.6576 325.022 22.8242C324.478 20.9909 324.206 19.1289 324.206 17.2383C324.206 15.3477 324.492 13.5 325.065 11.6953C325.638 9.86198 326.583 8.24349 327.901 6.83984C329.247 5.40755 330.923 4.64844 332.928 4.5625H333.745H347.108H347.925ZM346.464 24.1562C347.552 24.099 348.454 23.6979 349.171 22.9531C349.915 22.1797 350.445 21.2917 350.76 20.2891C351.076 19.2865 351.233 18.2695 351.233 17.2383C351.233 16.207 351.061 15.2044 350.717 14.2305C350.402 13.2279 349.887 12.3398 349.171 11.5664C348.454 10.793 347.552 10.3776 346.464 10.3203H334.26C333.172 10.3776 332.27 10.793 331.553 11.5664C330.837 12.3398 330.307 13.2279 329.964 14.2305C329.648 15.2044 329.491 16.207 329.491 17.2383C329.491 18.2695 329.648 19.2865 329.964 20.2891C330.279 21.2917 330.794 22.1797 331.51 22.9531C332.255 23.6979 333.172 24.099 334.26 24.1562H346.464Z"/>
</mask>
<path d="M9.50781 27.6367C9.33594 29.3555 8.39062 30.2865 6.67188 30.4297C5.86979 30.4297 5.16797 30.1719 4.56641 29.6562C3.99349 29.112 3.70703 28.4388 3.70703 27.6367V7.35547C3.73568 6.55339 4.03646 5.89453 4.60938 5.37891C5.18229 4.83464 5.86979 4.5625 6.67188 4.5625H24.7188C27.2396 4.64844 29.1445 5.20703 30.4336 6.23828C31.7227 7.24089 32.6536 8.38672 33.2266 9.67578C33.7995 10.9648 34.0859 12.2682 34.0859 13.5859C34.0859 14.9609 33.7995 16.293 33.2266 17.582C32.6823 18.8711 31.7513 20.0312 30.4336 21.0625C29.1445 22.0651 27.4974 22.5521 25.4922 22.5234H14.6641C13.862 22.5234 13.1888 22.237 12.6445 21.6641C12.0716 21.1198 11.7852 20.4466 11.7852 19.6445C11.7852 18.8424 12.0573 18.1693 12.6016 17.625C13.1745 17.0521 13.862 16.7656 14.6641 16.7656H25.75C26.2943 16.7656 26.7383 16.5938 27.082 16.25C27.4544 15.8776 27.7266 15.4622 27.8984 15.0039C28.0703 14.5169 28.1562 14.0299 28.1562 13.543C28.1562 13.0846 28.0703 12.6263 27.8984 12.168C27.7266 11.681 27.4544 11.2656 27.082 10.9219C26.7383 10.5495 26.2943 10.349 25.75 10.3203H10.625C9.88021 10.349 9.50781 10.7214 9.50781 11.4375V27.6367Z" stroke="white" stroke-width="6" mask="url(#path-1-outside-1)"/>
<path d="M67.8748 4.5625C69.3358 4.59115 70.6392 5.04948 71.785 5.9375C72.9308 6.82552 73.8475 7.88542 74.535 9.11719C75.2511 10.349 75.7811 11.6523 76.1248 13.0273C76.4686 14.4023 76.6405 15.806 76.6405 17.2383C76.6405 19.1289 76.3397 20.9909 75.7381 22.8242C75.1652 24.6289 74.2056 26.2331 72.8592 27.6367C71.5415 29.0404 69.8801 29.7995 67.8748 29.9141H52.8787C50.8735 29.8281 49.1978 29.0833 47.8514 27.6797C46.5051 26.276 45.5454 24.6576 44.9725 22.8242C44.4282 20.9909 44.1561 19.1289 44.1561 17.2383C44.1561 15.3477 44.4426 13.5 45.0155 11.6953C45.5884 9.86198 46.5337 8.24349 47.8514 6.83984C49.1978 5.40755 50.8735 4.64844 52.8787 4.5625H53.6952H67.0584H67.8748ZM66.4139 24.1562C67.5025 24.099 68.4048 23.6979 69.1209 22.9531C69.8657 22.1797 70.3957 21.2917 70.7108 20.2891C71.0259 19.2865 71.1834 18.2695 71.1834 17.2383C71.1834 16.207 71.0116 15.2044 70.6678 14.2305C70.3527 13.2279 69.8371 12.3398 69.1209 11.5664C68.4048 10.793 67.5025 10.3776 66.4139 10.3203H54.2108C53.1222 10.3776 52.2199 10.793 51.5037 11.5664C50.7876 12.3398 50.2577 13.2279 49.9139 14.2305C49.5988 15.2044 49.4412 16.207 49.4412 17.2383C49.4412 18.2695 49.5988 19.2865 49.9139 20.2891C50.229 21.2917 50.7446 22.1797 51.4608 22.9531C52.2056 23.6979 53.1222 24.099 54.2108 24.1562H66.4139Z" stroke="white" stroke-width="6" mask="url(#path-1-outside-1)"/>
<path d="M93.2848 27.7227C93.113 29.4414 92.1677 30.3724 90.4489 30.5156C89.6468 30.5156 88.945 30.2578 88.3434 29.7422C87.7705 29.1979 87.4841 28.5247 87.4841 27.7227V7.35547C87.5127 6.55339 87.8135 5.89453 88.3864 5.37891C88.9593 4.83464 89.6468 4.5625 90.4489 4.5625H92.5544H97.8395H108.453C108.625 4.5625 108.797 4.57682 108.968 4.60547H109.226C111.231 4.66276 112.879 5.12109 114.168 5.98047C115.457 6.83984 116.388 7.82812 116.961 8.94531C117.534 10.0339 117.82 11.1367 117.82 12.2539C117.82 13.3997 117.534 14.5312 116.961 15.6484C116.416 16.737 115.485 17.7109 114.168 18.5703C112.879 19.4297 111.231 19.888 109.226 19.9453H101.664C101.893 21.3776 102.366 22.4375 103.082 23.125C103.769 23.8125 104.643 24.1562 105.703 24.1562H114.984C115.786 24.1849 116.445 24.4857 116.961 25.0586C117.505 25.6315 117.777 26.319 117.777 27.1211C117.748 27.8945 117.462 28.5534 116.918 29.0977C116.402 29.6133 115.757 29.8854 114.984 29.9141H104.929C102.81 29.9427 100.89 29.112 99.1716 27.4219C97.4528 25.7318 96.4072 23.7266 96.0348 21.4062C95.5192 18.8281 95.2614 17.3815 95.2614 17.0664C95.2614 16.2643 95.5335 15.5911 96.0778 15.0469C96.6507 14.474 97.3382 14.1875 98.1403 14.1875H109.484C110.028 14.1589 110.472 14.0443 110.816 13.8438C111.188 13.6146 111.461 13.3711 111.632 13.1133C111.804 12.8268 111.89 12.5404 111.89 12.2539C111.89 11.9674 111.804 11.6953 111.632 11.4375C111.461 11.151 111.188 10.9076 110.816 10.707C110.472 10.4779 110.028 10.349 109.484 10.3203H97.8395H94.402C93.6572 10.349 93.2848 10.7214 93.2848 11.4375V27.7227Z" stroke="white" stroke-width="6" mask="url(#path-1-outside-1)"/>
<path d="M127.804 7.44141C127.804 6.63932 128.076 5.96615 128.621 5.42188C129.194 4.84896 129.881 4.5625 130.683 4.5625H155.691C156.493 4.5625 157.181 4.83464 157.753 5.37891C158.298 5.95182 158.57 6.63932 158.57 7.44141C158.57 8.24349 158.283 8.93099 157.71 9.50391C157.166 10.0482 156.493 10.3203 155.691 10.3203H146.109V27.7227C145.937 29.4414 144.992 30.3724 143.273 30.5156C142.471 30.5156 141.769 30.2578 141.167 29.7422C140.595 29.1979 140.308 28.5247 140.308 27.7227V10.3203H130.683C129.881 10.3203 129.208 10.0339 128.664 9.46094C128.091 8.91667 127.804 8.24349 127.804 7.44141Z" stroke="white" stroke-width="6" mask="url(#path-1-outside-1)"/>
<path d="M172.206 30.4297C171.433 30.401 170.774 30.1289 170.23 29.6133C169.686 29.069 169.399 28.4102 169.37 27.6367V16.9375C169.399 14.9036 169.686 12.9844 170.23 11.1797C170.803 9.375 171.734 7.85677 173.023 6.625C174.341 5.36458 176.002 4.67708 178.007 4.5625H194.593C195.367 4.59115 196.011 4.8776 196.527 5.42188C197.071 5.9375 197.357 6.58203 197.386 7.35547C197.386 8.15755 197.114 8.84505 196.57 9.41797C196.054 9.99089 195.395 10.2917 194.593 10.3203H179.468C178.38 10.3776 177.477 10.793 176.761 11.5664C176.045 12.3398 175.587 13.2279 175.386 14.2305C175.214 15.2044 175.143 16.2786 175.171 17.4531V27.6367C175.143 28.4388 174.842 29.112 174.269 29.6562C173.696 30.1719 173.008 30.4297 172.206 30.4297ZM177.191 19.1289C177.191 18.3268 177.477 17.6536 178.05 17.1094C178.594 16.5365 179.268 16.25 180.07 16.25H194.593C195.395 16.25 196.068 16.5365 196.613 17.1094C197.186 17.6536 197.472 18.3268 197.472 19.1289C197.472 19.931 197.2 20.6185 196.656 21.1914C196.083 21.7357 195.395 22.0078 194.593 22.0078H180.07C179.268 22.0078 178.58 21.7357 178.007 21.1914C177.463 20.6185 177.191 19.931 177.191 19.1289Z" stroke="white" stroke-width="6" mask="url(#path-1-outside-1)"/>
<path d="M230.616 4.5625C232.077 4.59115 233.381 5.04948 234.527 5.9375C235.672 6.82552 236.589 7.88542 237.277 9.11719C237.993 10.349 238.523 11.6523 238.866 13.0273C239.21 14.4023 239.382 15.806 239.382 17.2383C239.382 19.1289 239.081 20.9909 238.48 22.8242C237.907 24.6289 236.947 26.2331 235.601 27.6367C234.283 29.0404 232.622 29.7995 230.616 29.9141H215.62C213.615 29.8281 211.939 29.0833 210.593 27.6797C209.247 26.276 208.287 24.6576 207.714 22.8242C207.17 20.9909 206.898 19.1289 206.898 17.2383C206.898 15.3477 207.184 13.5 207.757 11.6953C208.33 9.86198 209.275 8.24349 210.593 6.83984C211.939 5.40755 213.615 4.64844 215.62 4.5625H216.437H229.8H230.616ZM229.155 24.1562C230.244 24.099 231.146 23.6979 231.863 22.9531C232.607 22.1797 233.137 21.2917 233.452 20.2891C233.767 19.2865 233.925 18.2695 233.925 17.2383C233.925 16.207 233.753 15.2044 233.409 14.2305C233.094 13.2279 232.579 12.3398 231.863 11.5664C231.146 10.793 230.244 10.3776 229.155 10.3203H216.952C215.864 10.3776 214.961 10.793 214.245 11.5664C213.529 12.3398 212.999 13.2279 212.655 14.2305C212.34 15.2044 212.183 16.207 212.183 17.2383C212.183 18.2695 212.34 19.2865 212.655 20.2891C212.971 21.2917 213.486 22.1797 214.202 22.9531C214.947 23.6979 215.864 24.099 216.952 24.1562H229.155Z" stroke="white" stroke-width="6" mask="url(#path-1-outside-1)"/>
<path d="M253.105 3.875C253.907 3.875 254.594 4.14714 255.167 4.69141C255.74 5.20703 256.041 5.86589 256.069 6.66797V17.0234C256.041 18.1979 256.112 19.2865 256.284 20.2891C256.485 21.263 256.943 22.1367 257.659 22.9102C258.375 23.6836 259.278 24.099 260.366 24.1562H274.116C274.918 24.1849 275.577 24.4857 276.093 25.0586C276.637 25.6315 276.909 26.319 276.909 27.1211C276.881 27.8945 276.594 28.5534 276.05 29.0977C275.534 29.6133 274.89 29.8854 274.116 29.9141H258.905C256.9 29.7995 255.239 29.1263 253.921 27.8945C252.632 26.6341 251.701 25.1016 251.128 23.2969C250.584 21.4922 250.297 19.5729 250.269 17.5391V6.66797C250.297 5.89453 250.584 5.25 251.128 4.73438C251.672 4.1901 252.331 3.90365 253.105 3.875Z" stroke="white" stroke-width="6" mask="url(#path-1-outside-1)"/>
<path d="M286.249 27.0352C286.249 26.2331 286.521 25.5599 287.065 25.0156C287.638 24.4427 288.326 24.1562 289.128 24.1562H297.378V10.3203H289.128C288.326 10.3203 287.653 10.0339 287.108 9.46094C286.535 8.91667 286.249 8.24349 286.249 7.44141C286.249 6.63932 286.521 5.96615 287.065 5.42188C287.638 4.84896 288.326 4.5625 289.128 4.5625H311.386C312.188 4.5625 312.875 4.83464 313.448 5.37891C313.992 5.95182 314.265 6.63932 314.265 7.44141C314.265 8.24349 313.978 8.93099 313.405 9.50391C312.861 10.0482 312.188 10.3203 311.386 10.3203H303.179V24.1562H311.386C312.188 24.1562 312.875 24.4284 313.448 24.9727C313.992 25.5456 314.265 26.2331 314.265 27.0352C314.265 27.8372 313.978 28.5247 313.405 29.0977C312.861 29.6419 312.188 29.9141 311.386 29.9141H289.128C288.326 29.9141 287.653 29.6276 287.108 29.0547C286.535 28.5104 286.249 27.8372 286.249 27.0352Z" stroke="white" stroke-width="6" mask="url(#path-1-outside-1)"/>
<path d="M347.925 4.5625C349.385 4.59115 350.689 5.04948 351.835 5.9375C352.981 6.82552 353.897 7.88542 354.585 9.11719C355.301 10.349 355.831 11.6523 356.175 13.0273C356.518 14.4023 356.69 15.806 356.69 17.2383C356.69 19.1289 356.389 20.9909 355.788 22.8242C355.215 24.6289 354.255 26.2331 352.909 27.6367C351.591 29.0404 349.93 29.7995 347.925 29.9141H332.928C330.923 29.8281 329.247 29.0833 327.901 27.6797C326.555 26.276 325.595 24.6576 325.022 22.8242C324.478 20.9909 324.206 19.1289 324.206 17.2383C324.206 15.3477 324.492 13.5 325.065 11.6953C325.638 9.86198 326.583 8.24349 327.901 6.83984C329.247 5.40755 330.923 4.64844 332.928 4.5625H333.745H347.108H347.925ZM346.464 24.1562C347.552 24.099 348.454 23.6979 349.171 22.9531C349.915 22.1797 350.445 21.2917 350.76 20.2891C351.076 19.2865 351.233 18.2695 351.233 17.2383C351.233 16.207 351.061 15.2044 350.717 14.2305C350.402 13.2279 349.887 12.3398 349.171 11.5664C348.454 10.793 347.552 10.3776 346.464 10.3203H334.26C333.172 10.3776 332.27 10.793 331.553 11.5664C330.837 12.3398 330.307 13.2279 329.964 14.2305C329.648 15.2044 329.491 16.207 329.491 17.2383C329.491 18.2695 329.648 19.2865 329.964 20.2891C330.279 21.2917 330.794 22.1797 331.51 22.9531C332.255 23.6979 333.172 24.099 334.26 24.1562H346.464Z" stroke="white" stroke-width="6" mask="url(#path-1-outside-1)"/>
</svg>
